<?xml version="1.0" encoding="UTF-8" standalone="no"?><!DOCTYPE svg PUBLIC "-//W3C//DTD SVG 1.1//EN" "http://www.w3.org/Graphics/SVG/1.1/DTD/svg11.dtd"><svg width="100%" height="100%" viewBox="0 0 8000 4500" version="1.1" xmlns="http://www.w3.org/2000/svg" xmlns:xlink="http://www.w3.org/1999/xlink" xml:space="preserve" xmlns:serif="http://www.serif.com/" style="fill-rule:evenodd;clip-rule:evenodd;stroke-linejoin:round;stroke-miterlimit:2;"><ellipse cx="7333.333" cy="3883.333" rx="28" ry="28.292"/><ellipse cx="6666.667" cy="3883.333" rx="28" ry="28.292"/><ellipse cx="6000" cy="3883.333" rx="28" ry="28.292"/><ellipse cx="5333.333" cy="3883.333" rx="28" ry="28.292"/><ellipse cx="4666.667" cy="3883.333" rx="28" ry="28.292"/><ellipse cx="4000" cy="3883.333" rx="28" ry="28.292"/><ellipse cx="3333.333" cy="3883.333" rx="28" ry="28.292"/><ellipse cx="2666.667" cy="3883.333" rx="28" ry="28.292"/><ellipse cx="2000" cy="3883.333" rx="28" ry="28.292"/><ellipse cx="1333.333" cy="3883.333" rx="28" ry="28.292"/><ellipse cx="666.667" cy="3883.333" rx="28" ry="28.292"/><ellipse cx="7333.333" cy="3235.042" rx="28" ry="28.292"/><ellipse cx="6666.667" cy="3235.042" rx="28" ry="28.292"/><ellipse cx="6000" cy="3235.042" rx="28" ry="28.292"/><ellipse cx="5333.333" cy="3235.042" rx="28" ry="28.292"/><ellipse cx="4666.667" cy="3235.042" rx="28" ry="28.292"/><ellipse cx="4000" cy="3235.042" rx="28" ry="28.292"/><ellipse cx="3333.333" cy="3235.042" rx="28" ry="28.292"/><ellipse cx="2666.667" cy="3235.042" rx="28" ry="28.292"/><ellipse cx="2000" cy="3235.042" rx="28" ry="28.292"/><ellipse cx="1333.333" cy="3235.042" rx="28" ry="28.292"/><ellipse cx="666.667" cy="3235.042" rx="28" ry="28.292"/><ellipse cx="7333.333" cy="2586.792" rx="28" ry="28.292"/><ellipse cx="6666.667" cy="2586.792" rx="28" ry="28.292"/><ellipse cx="6000" cy="2586.792" rx="28" ry="28.292"/><ellipse cx="5333.333" cy="2586.792" rx="28" ry="28.292"/><ellipse cx="4666.667" cy="2586.792" rx="28" ry="28.292"/><ellipse cx="4000" cy="2586.792" rx="28" ry="28.292"/><ellipse cx="3333.333" cy="2586.792" rx="28" ry="28.292"/><ellipse cx="2666.667" cy="2586.792" rx="28" ry="28.292"/><ellipse cx="2000" cy="2586.792" rx="28" ry="28.292"/><ellipse cx="1333.333" cy="2586.792" rx="28" ry="28.292"/><ellipse cx="666.667" cy="2586.792" rx="28" ry="28.292"/><ellipse cx="7333.333" cy="1938.5" rx="28" ry="28.292"/><ellipse cx="6666.667" cy="1938.5" rx="28" ry="28.292"/><ellipse cx="6000" cy="1938.5" rx="28" ry="28.292"/><ellipse cx="5333.333" cy="1938.5" rx="28" ry="28.292"/><ellipse cx="4666.667" cy="1938.5" rx="28" ry="28.292"/><ellipse cx="4000" cy="1938.5" rx="28" ry="28.292"/><ellipse cx="3333.333" cy="1938.5" rx="28" ry="28.292"/><ellipse cx="2666.667" cy="1938.5" rx="28" ry="28.292"/><ellipse cx="2000" cy="1938.5" rx="28" ry="28.292"/><ellipse cx="1333.333" cy="1938.5" rx="28" ry="28.292"/><ellipse cx="666.667" cy="1938.5" rx="28" ry="28.292"/><ellipse cx="7333.333" cy="1290.25" rx="28" ry="28.292"/><ellipse cx="6666.667" cy="1290.25" rx="28" ry="28.292"/><ellipse cx="6000" cy="1290.25" rx="28" ry="28.292"/><ellipse cx="5333.333" cy="1290.25" rx="28" ry="28.292"/><ellipse cx="4666.667" cy="1290.25" rx="28" ry="28.292"/><ellipse cx="4000" cy="1290.25" rx="28" ry="28.292"/><ellipse cx="3333.333" cy="1290.25" rx="28" ry="28.292"/><ellipse cx="2666.667" cy="1290.25" rx="28" ry="28.292"/><ellipse cx="2000" cy="1290.25" rx="28" ry="28.292"/><ellipse cx="1333.333" cy="1290.25" rx="28" ry="28.292"/><ellipse cx="666.667" cy="1290.25" rx="28" ry="28.292"/><ellipse cx="7333.333" cy="641.958" rx="28" ry="28.292"/><ellipse cx="6666.667" cy="641.958" rx="28" ry="28.292"/><ellipse cx="6000" cy="641.958" rx="28" ry="28.292"/><ellipse cx="5333.333" cy="641.958" rx="28" ry="28.292"/><ellipse cx="4666.667" cy="641.958" rx="28" ry="28.292"/><ellipse cx="4000" cy="641.958" rx="28" ry="28.292"/><ellipse cx="3333.333" cy="641.958" rx="28" ry="28.292"/><ellipse cx="2666.667" cy="641.958" rx="28" ry="28.292"/><ellipse cx="2000" cy="641.958" rx="28" ry="28.292"/><ellipse cx="1333.333" cy="641.958" rx="28" ry="28.292"/><ellipse cx="666.667" cy="641.958" rx="28" ry="28.292"/></svg>