<?xml version="1.0" encoding="UTF-8"?>
<svg id="Layer_1" xmlns="http://www.w3.org/2000/svg" version="1.1" viewBox="0 0 1920 1080">
  <!-- Generator: Adobe Illustrator 29.8.3, SVG Export Plug-In . SVG Version: 2.1.1 Build 3)  -->
  <defs>
    <style>
      .st0 {
        fill: #fff;
      }
    </style>
  </defs>
  <circle class="st0" cx="1760" cy="3080" r="6.72"/>
  <circle class="st0" cx="1600" cy="3080" r="6.72"/>
  <circle class="st0" cx="1440" cy="3080" r="6.72"/>
  <circle class="st0" cx="1280" cy="3080" r="6.72"/>
  <circle class="st0" cx="1120" cy="3080" r="6.72"/>
  <circle class="st0" cx="960" cy="3080" r="6.72"/>
  <circle class="st0" cx="800" cy="3080" r="6.72"/>
  <circle class="st0" cx="640" cy="3080" r="6.72"/>
  <circle class="st0" cx="480" cy="3080" r="6.72"/>
  <circle class="st0" cx="320" cy="3080" r="6.72"/>
  <circle class="st0" cx="160" cy="3080" r="6.72"/>
  <circle class="st0" cx="1760" cy="2926" r="6.72"/>
  <circle class="st0" cx="1600" cy="2926" r="6.72"/>
  <circle class="st0" cx="1440" cy="2926" r="6.72"/>
  <circle class="st0" cx="1280" cy="2926" r="6.72"/>
  <circle class="st0" cx="1120" cy="2926" r="6.72"/>
  <circle class="st0" cx="960" cy="2926" r="6.72"/>
  <circle class="st0" cx="800" cy="2926" r="6.72"/>
  <circle class="st0" cx="640" cy="2926" r="6.72"/>
  <circle class="st0" cx="480" cy="2926" r="6.72"/>
  <circle class="st0" cx="320" cy="2926" r="6.72"/>
  <circle class="st0" cx="160" cy="2926" r="6.72"/>
  <circle class="st0" cx="1760" cy="2772" r="6.72"/>
  <circle class="st0" cx="1600" cy="2772" r="6.72"/>
  <circle class="st0" cx="1440" cy="2772" r="6.72"/>
  <circle class="st0" cx="1280" cy="2772" r="6.72"/>
  <circle class="st0" cx="1120" cy="2772" r="6.72"/>
  <circle class="st0" cx="960" cy="2772" r="6.72"/>
  <circle class="st0" cx="800" cy="2772" r="6.72"/>
  <circle class="st0" cx="640" cy="2772" r="6.72"/>
  <circle class="st0" cx="480" cy="2772" r="6.72"/>
  <circle class="st0" cx="320" cy="2772" r="6.72"/>
  <circle class="st0" cx="160" cy="2772" r="6.72"/>
  <circle class="st0" cx="1760" cy="2618" r="6.72"/>
  <circle class="st0" cx="1600" cy="2618" r="6.72"/>
  <circle class="st0" cx="1440" cy="2618" r="6.72"/>
  <circle class="st0" cx="1280" cy="2618" r="6.72"/>
  <circle class="st0" cx="1120" cy="2618" r="6.72"/>
  <circle class="st0" cx="960" cy="2618" r="6.72"/>
  <circle class="st0" cx="800" cy="2618" r="6.72"/>
  <circle class="st0" cx="640" cy="2618" r="6.72"/>
  <circle class="st0" cx="480" cy="2618" r="6.72"/>
  <circle class="st0" cx="320" cy="2618" r="6.72"/>
  <circle class="st0" cx="160" cy="2618" r="6.72"/>
  <circle class="st0" cx="1760" cy="2464" r="6.72"/>
  <circle class="st0" cx="1600" cy="2464" r="6.72"/>
  <circle class="st0" cx="1440" cy="2464" r="6.72"/>
  <circle class="st0" cx="1280" cy="2464" r="6.72"/>
  <circle class="st0" cx="1120" cy="2464" r="6.72"/>
  <circle class="st0" cx="960" cy="2464" r="6.72"/>
  <circle class="st0" cx="800" cy="2464" r="6.72"/>
  <circle class="st0" cx="640" cy="2464" r="6.72"/>
  <circle class="st0" cx="480" cy="2464" r="6.72"/>
  <circle class="st0" cx="320" cy="2464" r="6.72"/>
  <circle class="st0" cx="160" cy="2464" r="6.72"/>
  <circle class="st0" cx="1760" cy="2310" r="6.72"/>
  <circle class="st0" cx="1600" cy="2310" r="6.72"/>
  <circle class="st0" cx="1440" cy="2310" r="6.72"/>
  <circle class="st0" cx="1280" cy="2310" r="6.72"/>
  <circle class="st0" cx="1120" cy="2310" r="6.72"/>
  <circle class="st0" cx="960" cy="2310" r="6.72"/>
  <circle class="st0" cx="800" cy="2310" r="6.72"/>
  <circle class="st0" cx="640" cy="2310" r="6.72"/>
  <circle class="st0" cx="480" cy="2310" r="6.72"/>
  <circle class="st0" cx="320" cy="2310" r="6.72"/>
  <circle class="st0" cx="160" cy="2310" r="6.72"/>
  <circle class="st0" cx="1760" cy="2156" r="6.72"/>
  <circle class="st0" cx="1600" cy="2156" r="6.72"/>
  <circle class="st0" cx="1440" cy="2156" r="6.72"/>
  <circle class="st0" cx="1280" cy="2156" r="6.72"/>
  <circle class="st0" cx="1120" cy="2156" r="6.72"/>
  <circle class="st0" cx="960" cy="2156" r="6.72"/>
  <circle class="st0" cx="800" cy="2156" r="6.72"/>
  <circle class="st0" cx="640" cy="2156" r="6.72"/>
  <circle class="st0" cx="480" cy="2156" r="6.72"/>
  <circle class="st0" cx="320" cy="2156" r="6.72"/>
  <circle class="st0" cx="160" cy="2156" r="6.72"/>
  <circle class="st0" cx="1760" cy="2002" r="6.72"/>
  <circle class="st0" cx="1600" cy="2002" r="6.72"/>
  <circle class="st0" cx="1440" cy="2002" r="6.72"/>
  <circle class="st0" cx="1280" cy="2002" r="6.72"/>
  <circle class="st0" cx="1120" cy="2002" r="6.72"/>
  <circle class="st0" cx="960" cy="2002" r="6.72"/>
  <circle class="st0" cx="800" cy="2002" r="6.72"/>
  <circle class="st0" cx="640" cy="2002" r="6.72"/>
  <circle class="st0" cx="480" cy="2002" r="6.72"/>
  <circle class="st0" cx="320" cy="2002" r="6.72"/>
  <circle class="st0" cx="160" cy="2002" r="6.72"/>
  <circle class="st0" cx="1760" cy="1848" r="6.72"/>
  <circle class="st0" cx="1600" cy="1848" r="6.72"/>
  <circle class="st0" cx="1440" cy="1848" r="6.72"/>
  <circle class="st0" cx="1280" cy="1848" r="6.72"/>
  <circle class="st0" cx="1120" cy="1848" r="6.72"/>
  <circle class="st0" cx="960" cy="1848" r="6.72"/>
  <circle class="st0" cx="800" cy="1848" r="6.72"/>
  <circle class="st0" cx="640" cy="1848" r="6.72"/>
  <circle class="st0" cx="480" cy="1848" r="6.72"/>
  <circle class="st0" cx="320" cy="1848" r="6.72"/>
  <circle class="st0" cx="160" cy="1848" r="6.72"/>
  <circle class="st0" cx="1760" cy="1694" r="6.72"/>
  <circle class="st0" cx="1600" cy="1694" r="6.72"/>
  <circle class="st0" cx="1440" cy="1694" r="6.72"/>
  <circle class="st0" cx="1280" cy="1694" r="6.72"/>
  <circle class="st0" cx="1120" cy="1694" r="6.72"/>
  <circle class="st0" cx="960" cy="1694" r="6.72"/>
  <circle class="st0" cx="800" cy="1694" r="6.72"/>
  <circle class="st0" cx="640" cy="1694" r="6.72"/>
  <circle class="st0" cx="480" cy="1694" r="6.72"/>
  <circle class="st0" cx="320" cy="1694" r="6.72"/>
  <circle class="st0" cx="160" cy="1694" r="6.72"/>
  <circle class="st0" cx="1760" cy="1540" r="6.72"/>
  <circle class="st0" cx="1600" cy="1540" r="6.72"/>
  <circle class="st0" cx="1440" cy="1540" r="6.72"/>
  <circle class="st0" cx="1280" cy="1540" r="6.72"/>
  <circle class="st0" cx="1120" cy="1540" r="6.72"/>
  <circle class="st0" cx="960" cy="1540" r="6.72"/>
  <circle class="st0" cx="800" cy="1540" r="6.72"/>
  <circle class="st0" cx="640" cy="1540" r="6.72"/>
  <circle class="st0" cx="480" cy="1540" r="6.72"/>
  <circle class="st0" cx="320" cy="1540" r="6.72"/>
  <circle class="st0" cx="160" cy="1540" r="6.72"/>
  <circle class="st0" cx="1760" cy="1386" r="6.72"/>
  <circle class="st0" cx="1600" cy="1386" r="6.72"/>
  <circle class="st0" cx="1440" cy="1386" r="6.72"/>
  <circle class="st0" cx="1280" cy="1386" r="6.72"/>
  <circle class="st0" cx="1120" cy="1386" r="6.72"/>
  <circle class="st0" cx="960" cy="1386" r="6.72"/>
  <circle class="st0" cx="800" cy="1386" r="6.72"/>
  <circle class="st0" cx="640" cy="1386" r="6.72"/>
  <circle class="st0" cx="480" cy="1386" r="6.72"/>
  <circle class="st0" cx="320" cy="1386" r="6.72"/>
  <circle class="st0" cx="160" cy="1386" r="6.72"/>
  <circle class="st0" cx="1760" cy="1232" r="6.72"/>
  <circle class="st0" cx="1600" cy="1232" r="6.72"/>
  <circle class="st0" cx="1440" cy="1232" r="6.72"/>
  <circle class="st0" cx="1280" cy="1232" r="6.72"/>
  <circle class="st0" cx="1120" cy="1232" r="6.72"/>
  <circle class="st0" cx="960" cy="1232" r="6.72"/>
  <circle class="st0" cx="800" cy="1232" r="6.72"/>
  <circle class="st0" cx="640" cy="1232" r="6.72"/>
  <circle class="st0" cx="480" cy="1232" r="6.72"/>
  <circle class="st0" cx="320" cy="1232" r="6.72"/>
  <circle class="st0" cx="160" cy="1232" r="6.72"/>
  <circle class="st0" cx="1760" cy="1078" r="6.72"/>
  <circle class="st0" cx="1600" cy="1078" r="6.72"/>
  <circle class="st0" cx="1440" cy="1078" r="6.72"/>
  <circle class="st0" cx="1280" cy="1078" r="6.72"/>
  <circle class="st0" cx="1120" cy="1078" r="6.72"/>
  <circle class="st0" cx="960" cy="1078" r="6.72"/>
  <circle class="st0" cx="800" cy="1078" r="6.72"/>
  <circle class="st0" cx="640" cy="1078" r="6.72"/>
  <circle class="st0" cx="480" cy="1078" r="6.72"/>
  <circle class="st0" cx="320" cy="1078" r="6.72"/>
  <circle class="st0" cx="160" cy="1078" r="6.72"/>
  <circle class="st0" cx="1760" cy="924" r="6.72"/>
  <circle class="st0" cx="1600" cy="924" r="6.72"/>
  <circle class="st0" cx="1440" cy="924" r="6.72"/>
  <circle class="st0" cx="1280" cy="924" r="6.72"/>
  <circle class="st0" cx="1120" cy="924" r="6.72"/>
  <circle class="st0" cx="960" cy="924" r="6.72"/>
  <circle class="st0" cx="800" cy="924" r="6.72"/>
  <circle class="st0" cx="640" cy="924" r="6.72"/>
  <circle class="st0" cx="480" cy="924" r="6.72"/>
  <circle class="st0" cx="320" cy="924" r="6.72"/>
  <circle class="st0" cx="160" cy="924" r="6.72"/>
  <circle class="st0" cx="1760" cy="770" r="6.72"/>
  <circle class="st0" cx="1600" cy="770" r="6.72"/>
  <circle class="st0" cx="1440" cy="770" r="6.72"/>
  <circle class="st0" cx="1280" cy="770" r="6.72"/>
  <circle class="st0" cx="1120" cy="770" r="6.72"/>
  <circle class="st0" cx="960" cy="770" r="6.72"/>
  <circle class="st0" cx="800" cy="770" r="6.72"/>
  <circle class="st0" cx="640" cy="770" r="6.72"/>
  <circle class="st0" cx="480" cy="770" r="6.72"/>
  <circle class="st0" cx="320" cy="770" r="6.72"/>
  <circle class="st0" cx="160" cy="770" r="6.72"/>
  <circle class="st0" cx="1760" cy="616" r="6.72"/>
  <circle class="st0" cx="1600" cy="616" r="6.72"/>
  <circle class="st0" cx="1440" cy="616" r="6.72"/>
  <circle class="st0" cx="1280" cy="616" r="6.72"/>
  <circle class="st0" cx="1120" cy="616" r="6.72"/>
  <circle class="st0" cx="960" cy="616" r="6.72"/>
  <circle class="st0" cx="800" cy="616" r="6.72"/>
  <circle class="st0" cx="640" cy="616" r="6.72"/>
  <circle class="st0" cx="480" cy="616" r="6.72"/>
  <circle class="st0" cx="320" cy="616" r="6.72"/>
  <circle class="st0" cx="160" cy="616" r="6.72"/>
  <circle class="st0" cx="1760" cy="462" r="6.72"/>
  <circle class="st0" cx="1600" cy="462" r="6.72"/>
  <circle class="st0" cx="1440" cy="462" r="6.72"/>
  <circle class="st0" cx="1280" cy="462" r="6.72"/>
  <circle class="st0" cx="1120" cy="462" r="6.72"/>
  <circle class="st0" cx="960" cy="462" r="6.72"/>
  <circle class="st0" cx="800" cy="462" r="6.72"/>
  <circle class="st0" cx="640" cy="462" r="6.72"/>
  <circle class="st0" cx="480" cy="462" r="6.72"/>
  <circle class="st0" cx="320" cy="462" r="6.72"/>
  <circle class="st0" cx="160" cy="462" r="6.72"/>
  <circle class="st0" cx="1760" cy="308" r="6.72"/>
  <circle class="st0" cx="1600" cy="308" r="6.72"/>
  <circle class="st0" cx="1440" cy="308" r="6.72"/>
  <circle class="st0" cx="1280" cy="308" r="6.72"/>
  <circle class="st0" cx="1120" cy="308" r="6.72"/>
  <circle class="st0" cx="960" cy="308" r="6.72"/>
  <circle class="st0" cx="800" cy="308" r="6.72"/>
  <circle class="st0" cx="640" cy="308" r="6.72"/>
  <circle class="st0" cx="480" cy="308" r="6.72"/>
  <circle class="st0" cx="320" cy="308" r="6.72"/>
  <circle class="st0" cx="160" cy="308" r="6.72"/>
  <circle class="st0" cx="1760" cy="154" r="6.72"/>
  <circle class="st0" cx="1600" cy="154" r="6.72"/>
  <circle class="st0" cx="1440" cy="154" r="6.72"/>
  <circle class="st0" cx="1280" cy="154" r="6.72"/>
  <circle class="st0" cx="1120" cy="154" r="6.72"/>
  <circle class="st0" cx="960" cy="154" r="6.72"/>
  <circle class="st0" cx="800" cy="154" r="6.72"/>
  <circle class="st0" cx="640" cy="154" r="6.72"/>
  <circle class="st0" cx="480" cy="154" r="6.72"/>
  <circle class="st0" cx="320" cy="154" r="6.72"/>
  <circle class="st0" cx="160" cy="154" r="6.72"/>
</svg>